<svg xmlns="http://www.w3.org/2000/svg" viewBox="0 0 229.35 269.08"><defs><style>.cls-1{fill:#fff;}</style></defs><g id="Layer_2" data-name="Layer 2"><g id="Layer_1-2" data-name="Layer 1"><path class="cls-1" d="M229,28.73c0-2.29-3.82-3.9-5.33-5l-9.88-7.23L192.61,1a2.09,2.09,0,0,0-1-.4,2.17,2.17,0,0,0-1.07-.29L3.26.67a2.18,2.18,0,0,0-2,3,1.88,1.88,0,0,0-.9,1.83q1.49,25.71,3.4,51.41a2,2,0,0,0-.27,3.25c8.77,7.71,17.27,16.6,26.93,23.19,9,6.17,20.7,1.35,30.78,2.37L59.44,239.86a2.45,2.45,0,0,0,0,.39,2.08,2.08,0,0,0,.51,2.11c11,11.77,26.08,18.32,40.89,24,3.63,1.39,7.57,1,11.33.62a144.76,144.76,0,0,1,15.45-.54c10.33.12,20.63,1.24,30.89,2.3a1.81,1.81,0,0,0,2.1-1.7c1.45-.22,2.62-1.76,1.87-3a2.2,2.2,0,0,0,.22-.79q.4-4.46.76-8.91l.6.43c1.41,1,2.73-1.32,1.34-2.3l-1.69-1.18q.38-4.62.7-9.25l.22.18c1.34,1,3.23-.83,1.88-1.88l-1.88-1.47q1.8-25.57,2.54-51.22a1.35,1.35,0,0,0,.92-2.47l-.83-.55c.08-3,.14-6,.2-9a1.43,1.43,0,0,0,0-2.18q.36-19.34.12-38.68a1.47,1.47,0,0,0,0-1.77q-.18-13-.62-26.06a1.32,1.32,0,0,0-.05-1.38q-.33-9.31-.78-18.62c19.62-2.34,39.51-5.59,59.29-5.17A2.23,2.23,0,0,0,229,80Q229,54.38,229,28.73Zm-4.42,1.11v11a235.92,235.92,0,0,0-31.44-17.2l-.14-.05q0-8.46-.16-16.93Zm0,25.44-25-16.13c-1.34-.87-4.29-3.65-6.57-3.74l0-8.94a236.06,236.06,0,0,1,31.43,17.42l.14.07Q224.58,49.63,224.59,55.28ZM34,80.27c-5-2.28-9.31-7.39-13.39-11L10.42,60.36q5.88.78,11.79,1.35c2.62,2.9,5.87,5.39,8.67,8L44.33,82.14A24,24,0,0,1,34,80.27Zm27.26,1.06c-4.7-.3-9.59.45-14.4.72a1.14,1.14,0,0,0-.26-1.45L34,69c-2.44-2.26-5.32-4.48-7.86-6.93q6,.51,12,.77A94,94,0,0,1,52.11,79c1,1.4,3.26.08,2.29-1.34A97.08,97.08,0,0,0,42.13,63q3.78.12,7.56.15a1.14,1.14,0,0,0,.41.6A62.1,62.1,0,0,1,61.29,75.39Zm.11-10.17a64.38,64.38,0,0,0-7.82-8c2.64,0,5.27,0,7.91-.12ZM64,58.53q-13.44.51-26.86-.14l-.56-.49a1.42,1.42,0,0,0-2.1.35q-6.18-.36-12.34-1a1.37,1.37,0,0,0-1.93-.21c-4-.42-8.08-.9-12.1-1.49Q6.22,30.55,4.76,5.47a2.16,2.16,0,0,0-.06-.38l183.69-.33q.39,25.7.17,51.38a2.24,2.24,0,0,0,.13.76l-59.23.8a2,2,0,0,0-1.68.82,2,2,0,0,0-1.61,2.07q.92,37,.84,74a1.47,1.47,0,0,0,0,2.24q-.11,50.19-1.94,100.36a2.19,2.19,0,0,0-.5.8,280,280,0,0,1-45.86,1.13L77.13,238a1.21,1.21,0,0,0-1.9.87c-3.79-.26-7.56-.6-11.34-1l2-176.2A2.12,2.12,0,0,0,64,58.53Zm69.51,43.8c5.57.75,11.11,6.44,15.56,9.6l14,9.91q.09,3.94.15,7.88-15-10.8-30.89-20.43a1.19,1.19,0,0,0-.91-.17q-.08-11.22-.25-22.42l31.46,19.16q.22,6.35.37,12.69l-14-9.93c-4.36-3.1-9.26-8.11-14.76-8.85C132.52,99.54,131.79,102.1,133.48,102.33ZM163.2,133q.09,7.26.11,14.54l-31.9-23.93q0-5.89-.06-11.77Q147.7,121.79,163.2,133ZM132,84.11a1.24,1.24,0,0,0-.91-.17q-.09-5.61-.2-11.24a224.58,224.58,0,0,0,31.3,22.4q.17,3.8.31,7.59Zm.6-13.42a1.34,1.34,0,0,0-1.75,0c0-1.84-.07-3.67-.12-5.51l31.06,21.18c.09,1.86.17,3.72.26,5.58A219.91,219.91,0,0,1,132.55,70.69ZM106.05,262.9c-4.34,0-9.17-2.83-13.09-4.49-3.6-1.52-7.13-3.19-10.6-5a73,73,0,0,1-15.79-10.82q7,.69,14,1l27.78,19.21C107.6,262.89,106.83,262.9,106.05,262.9Zm6.16-.14a1.31,1.31,0,0,0-.56-.84L85.52,243.84c3.86.13,7.72.17,11.59.14q12.63,8.6,24.43,18.3C118.43,262.43,115.33,262.63,112.21,262.76Zm20.6-.59c-2.45-.11-4.88-.11-7.31,0Q114,252.5,101.68,243.91c4.35-.1,8.7-.32,13-.62a1.07,1.07,0,0,0,.11,1.67l22.27,17.46C135.68,262.33,134.24,262.24,132.81,262.17Zm9,.58-25-19.62q4.18-.31,8.37-.76l.08,0a2.35,2.35,0,0,0,3.39.37l27,21.3C151,263.55,146.43,263.11,141.8,262.75Zm16.73-2.06-29.06-22.9c.09-2.39.16-4.78.24-7.17l29.6,20.76Q158.94,256,158.53,260.69Zm1-12.37-29.73-20.86c.14-4.08.25-8.16.37-12.24l.18.17,29.88,23.35C160,241.93,159.79,245.13,159.55,248.32Zm1.82-27.61a1.55,1.55,0,0,0-.26-.25q-14.27-10.64-27.74-22.27c-1.29-1.11-3.17.76-1.88,1.88q13.74,11.85,28.28,22.68a1,1,0,0,0,1.49-.11q-.37,6.47-.8,12.92l-28.22-22.05a1.45,1.45,0,0,0-2,.23q.38-12.83.61-25.65l29.52,23a1.38,1.38,0,0,0,1.5.15C161.7,214.4,161.54,217.55,161.37,220.71ZM162,209l-31.05-24.2c.05-3,.1-6,.14-9l.18.12,9.76,7.41,19.52,14.82c1.36,1,2.68-1.27,1.34-2.29l-15.34-11.64-7-5.3q-2.1-1.58-4.18-3.17c-.36-.27-2.65-1.67-3.57-2.47a1.42,1.42,0,0,0-.35-1.23l-.19-.22-.13-.1c0-2.55.06-5.1.09-7.65l31.62,20.76Q162.5,196.93,162,209Zm1.19-38.69q-14.06-10-27.78-20.54c-1.36-1-2.68,1.27-1.34,2.29q14.34,11,29.06,21.45c-.05,2.74-.1,5.48-.17,8.22l-31.67-20.79q.12-10.4.15-20.81L163.23,164C163.21,166.08,163.19,168.19,163.15,170.31Zm.12-9.62-31.86-23.84c0-3.31,0-6.62,0-9.93l31,23.27a1.07,1.07,0,0,0,.88.24Q163.31,155.56,163.27,160.69Zm1-77.94-.14-.12L134,62.06l16.38-.22A247.34,247.34,0,0,1,174,81.56C170.75,82,167.51,82.38,164.29,82.75Zm13.07-1.62a252.85,252.85,0,0,0-22.64-19.35l10.95-.14q11.09,9.58,23,18.07Q183,80.4,177.36,81.13Zm15.1-1.86a1.4,1.4,0,0,0-.38-.39q-11.6-8.11-22.37-17.3l12.84-.17a1.33,1.33,0,0,0,.52.78,165.26,165.26,0,0,1,18.51,16.14C198.54,78.61,195.5,78.93,192.46,79.27ZM205,78a169,169,0,0,0-18.69-16.68l3.48,0a2.24,2.24,0,0,0,.94.69,149.2,149.2,0,0,1,28.8,15.33C214.69,77.39,209.85,77.66,205,78Zm-10.92-19.4A2,2,0,0,0,192.81,57a2.27,2.27,0,0,0,.18-.86l0-5.65,29.25,22.26c1.37,1,2.69-1.27,1.34-2.29L193,47.19c0-2.58,0-5.15,0-7.73a1.29,1.29,0,0,0,.17-2c4.18,4.27,10.31,7.34,15.43,10.65l16,10.3v17A154.4,154.4,0,0,0,194.09,58.64Z"/><path class="cls-1" d="M158.82,269.08h-.3l-1.47-.16c-9.63-1-19.58-2-29.4-2.14h-2.5c-4.81,0-9,.18-12.91.55l-.26,0c-1.68.16-3.42.33-5.14.33a16.57,16.57,0,0,1-6.07-1c-13.93-5.34-29.73-12-41-24.08a2.4,2.4,0,0,1-.61-2.36,2.22,2.22,0,0,1,0-.37L60.84,86c-.88-.08-1.8-.12-2.81-.12-2.51,0-5.15.25-7.69.49s-5.26.49-7.84.49c-5.13,0-9-1-12.29-3.26C23.41,79,17.12,73.12,11.05,67.48c-2.55-2.36-5.19-4.81-7.8-7.11a2.2,2.2,0,0,1-.83-1.81,2.62,2.62,0,0,1,1-1.83C2.13,39.69,1,22.45,0,5.49a2.22,2.22,0,0,1,.85-2,2.76,2.76,0,0,1,.43-2.21,2.38,2.38,0,0,1,2-.95L190.57,0a2.49,2.49,0,0,1,1.18.3,2.43,2.43,0,0,1,1.05.45l31.06,22.71c.34.24.8.52,1.3.82,1.76,1,4.17,2.5,4.17,4.45l0,51.3a2.4,2.4,0,0,1-.8,1.86,2.68,2.68,0,0,1-1.73.61h0a2.82,2.82,0,0,1-1.44-.39c-15.9-.33-32,1.74-47.68,3.74-3.73.47-7.45,1-11.16,1.39.27,5.56.52,11.52.75,18.22a1.65,1.65,0,0,1,.06,1.56c.3,8.83.51,17.54.62,25.88a1.8,1.8,0,0,1,0,2c.15,13,.12,25.9-.11,38.44a1.66,1.66,0,0,1,.48,1.18,2,2,0,0,1-.54,1.29q-.07,4.32-.19,8.64l.68.45a1.62,1.62,0,0,1,.69,1.88,1.68,1.68,0,0,1-1.47,1.24c-.51,17-1.35,34-2.51,50.7l1.73,1.36a1.37,1.37,0,0,1,.52,1.57,1.88,1.88,0,0,1-2.53,1q-.31,4.23-.64,8.46l1.53,1.08a1.69,1.69,0,0,1,.65,1.94,1.54,1.54,0,0,1-2.37.9l-.13-.09c-.23,2.77-.46,5.55-.71,8.32a2.55,2.55,0,0,1-.18.76,2,2,0,0,1,0,1.78,2.93,2.93,0,0,1-1.93,1.53A2.07,2.07,0,0,1,158.82,269.08Zm-33.67-3h2.51c9.85.11,19.82,1.15,29.46,2.15l1.47.15a1.49,1.49,0,0,0,1.73-1.41l0-.26.25,0a2.31,2.31,0,0,0,1.67-1.21,1.35,1.35,0,0,0,0-1.31l-.09-.15.07-.16a1.93,1.93,0,0,0,.19-.68c.27-3,.51-5.94.76-8.9l.05-.58,1.07.76a.88.88,0,0,0,1.36-.56,1,1,0,0,0-.4-1.19l-1.85-1.3,0-.19q.38-4.62.7-9.24l0-.63.71.56a1.18,1.18,0,0,0,1.77-.52.7.7,0,0,0-.29-.83l-2-1.57v-.18c1.18-16.82,2-34.05,2.54-51.21v-.41l.4.1a.94.94,0,0,0,1.07-.74,1,1,0,0,0-.41-1.14l-1-.65v-.18c.08-3,.14-6,.2-9v-.15l.11-.11a1.19,1.19,0,0,0,.41-.89,1,1,0,0,0-.36-.78l-.12-.1v-.16c.23-12.61.27-25.62.12-38.67v-.11l.07-.08a1.14,1.14,0,0,0,0-1.37l-.07-.09V133c-.12-8.39-.33-17.15-.63-26v-.09l0-.08a1,1,0,0,0,0-1l-.06-.08v-.1c-.23-6.86-.49-13-.77-18.61l0-.31.31,0c3.81-.45,7.64-.94,11.46-1.43,15.69-2,31.91-4.09,47.88-3.75h.1l.08,0a2,2,0,0,0,1.15.34h0a2,2,0,0,0,1.3-.46,1.73,1.73,0,0,0,.57-1.35l0-51.3c0-1.58-2.23-2.91-3.85-3.88-.51-.31-1-.6-1.35-.86L192.41,1.29A1.79,1.79,0,0,0,191.6,1l-.12,0a1.88,1.88,0,0,0-.9-.25L3.26,1a1.7,1.7,0,0,0-1.43.68,2.1,2.1,0,0,0-.27,1.86l.08.25-.23.14A1.53,1.53,0,0,0,.67,5.45c1,17,2.13,34.32,3.41,51.41V57l-.15.11a1.94,1.94,0,0,0-.85,1.44,1.57,1.57,0,0,0,.6,1.29C6.3,62.18,8.94,64.63,11.5,67c6.06,5.63,12.33,11.45,19.08,16.06,3.15,2.15,6.93,3.15,11.92,3.15,2.55,0,5.21-.25,7.77-.49s5.22-.5,7.76-.5a31.71,31.71,0,0,1,3.18.15l.3,0L59.78,239.86a1.27,1.27,0,0,0,0,.34v.07l0,.08a1.77,1.77,0,0,0,.43,1.79c11.2,11.93,26.92,18.6,40.77,23.91a16,16,0,0,0,5.84.94c1.69,0,3.41-.16,5.08-.32l.26,0C116.07,266.28,120.31,266.1,125.15,266.1Zm31.61-1.64-1.14-.11c-5.35-.55-9.75-1-13.84-1.27h-.1l-.08-.07-25.69-20.14.85-.07c3.22-.25,5.88-.49,8.37-.76l.21,0,.18.16a1.78,1.78,0,0,0,1.54.77,2,2,0,0,0,1.35-.48l.21-.17Zm-14.83-2c3.77.29,7.81.66,12.63,1.14l-25.94-20.43a2.78,2.78,0,0,1-1.56.46,2.47,2.47,0,0,1-2-.89c-2.25.24-4.63.46-7.43.69Zm-35.71.8h-.17c-3.46,0-7.21-1.75-10.52-3.29-.93-.44-1.84-.86-2.7-1.22-3.54-1.5-7.12-3.18-10.62-5a73.56,73.56,0,0,1-15.87-10.88l-.74-.67,1,.1c4.54.45,9.25.8,14,1h.09l28.71,19.86-1.23,0ZM67.54,243a74.44,74.44,0,0,0,15,10.1c3.49,1.8,7,3.47,10.58,5,.87.37,1.78.79,2.72,1.23,3.25,1.51,6.93,3.21,10.24,3.23h1.29L80.48,244C76.1,243.76,71.75,243.44,67.54,243Zm44.4,20.07,0-.28a1,1,0,0,0-.43-.64L84.4,243.48l1.13,0c3.69.12,7.63.17,11.58.14h.1l.08.06c8.41,5.72,16.64,11.88,24.46,18.32l.67.54-.86,0-3.93.21c-1.8.1-3.6.2-5.4.27Zm-25.31-18.9,25.21,17.44a1.65,1.65,0,0,1,.62.77l5.14-.26,3.07-.17c-7.58-6.2-15.54-12.14-23.66-17.68C93.49,244.34,90,244.31,86.63,244.21Zm51.53,18.61-1.07-.07c-1.43-.09-2.86-.18-4.29-.25-1.27-.06-2.58-.09-4-.09-1.1,0-2.2,0-3.3,0h-.13l-.1-.08c-7.66-6.42-15.67-12.54-23.79-18.21l-.83-.58,1,0c4.2-.1,8.59-.31,13-.62l.83-.06-.56.61a.88.88,0,0,0-.25.65.73.73,0,0,0,.33.54Zm-9.35-1.07c1.42,0,2.74,0,4,.09,1.08.05,2.16.11,3.23.18l-21.42-16.8a1.42,1.42,0,0,1-.58-1,1.3,1.3,0,0,1,.06-.55c-3.88.27-7.72.45-11.42.56,7.82,5.49,15.52,11.4,22.91,17.58C126.68,261.77,127.74,261.75,128.81,261.75Zm30-.42L129.13,238v-.17c.05-1.4.1-2.8.14-4.2l.12-3.58,30.25,21.22v.19c-.25,3.1-.5,6.21-.78,9.31Zm-29-23.7,28.45,22.42q.36-4.24.7-8.51L130,231.24,130,233.6C129.9,234.94,129.86,236.29,129.81,237.63Zm30,11.29-30.35-21.29v-.18c.1-3.17.19-6.35.29-9.52l.1-3.54h0l0-.66c.22-7.71.42-15.86.61-25.65l0-.66,30,23.4a1,1,0,0,0,1.15.12l.5-.24,0,.56c-.15,3.15-.32,6.31-.49,9.47l0,.84-.54-.65a1.13,1.13,0,0,0-.19-.19c-9.43-7-18.77-14.52-27.77-22.29a1.11,1.11,0,0,0-1.71.48.77.77,0,0,0,.27.9c9,7.82,18.56,15.44,28.26,22.67a.8.8,0,0,0,1.05-.07l.62-.66,0,.9c-.28,5-.54,9.06-.8,12.93l0,.62L132,213.77a1.14,1.14,0,0,0-1.56.19l-.48.55.43.48a.58.58,0,0,0,.14.13l30,23.47v.18q-.33,4.78-.7,9.57Zm-29.67-21.63,29.1,20.42c.23-2.94.44-5.88.65-8.82l-29.41-23-.06,2C130.35,221.06,130.26,224.18,130.16,227.29Zm1.22-14.42a1.71,1.71,0,0,1,1.07.38l27.72,21.67c.24-3.51.47-7.25.72-11.65a1.39,1.39,0,0,1-1.31-.25c-9.72-7.23-19.24-14.87-28.3-22.7a1.75,1.75,0,0,1-.36-.42c-.11,4.65-.22,9-.34,13.16A1.88,1.88,0,0,1,131.38,212.87Zm1.11-15.35a1.7,1.7,0,0,1,1.1.42c8.9,7.69,18.15,15.12,27.48,22.08.16-2.77.3-5.55.43-8.32a1.73,1.73,0,0,1-1.35-.35l-29-22.59c-.07,3.4-.13,6.59-.2,9.65A1.84,1.84,0,0,1,132.49,197.52Zm-37.74,42.4c-5.33,0-10.74-.15-16.06-.46h-.1l-1.65-1.15a.9.9,0,0,0-1.39.67l-.06.29-.29,0c-3.76-.27-7.58-.61-11.35-1l-.29,0v-.3l2-176.26,0-.07a2.18,2.18,0,0,0-.1-2,1.57,1.57,0,0,0-1.4-.71H64c-8.9.34-18,.3-26.88-.14H37l-.35-.3-.3-.26a1.1,1.1,0,0,0-1.61.27l-.11.16h-.19c-4.28-.25-8.44-.57-12.36-.95h-.14l-.09-.12a.94.94,0,0,0-.76-.38,1.23,1.23,0,0,0-.7.24l-.1.08-.13,0C15.8,57,11.83,56.48,8,55.93l-.26,0,0-.26C6.5,38.85,5.39,22,4.43,5.49a2.88,2.88,0,0,0,0-.33l-.09-.4H4.7l184-.33v.32c.27,17.22.32,34.51.17,51.39a2.11,2.11,0,0,0,.11.65l.15.44-59.68.8a1.71,1.71,0,0,0-1.42.69l-.08.1-.12,0a1.64,1.64,0,0,0-1.35,1.74c.59,24,.88,48.9.85,74v.15l-.12.1a1.24,1.24,0,0,0-.41.92,1.06,1.06,0,0,0,.4.81l.12.1v.16c-.07,33.68-.72,67.45-1.94,100.37v.13l-.08.09a2,2,0,0,0-.43.69l-.07.19-.21,0A280.88,280.88,0,0,1,94.75,239.92Zm-15.93-1.11c5.28.3,10.64.45,15.93.45a283.81,283.81,0,0,0,29.58-1.56,2.63,2.63,0,0,1,.41-.63c1.21-32.83,1.87-66.5,1.94-100.08a1.68,1.68,0,0,1-.52-1.21,1.9,1.9,0,0,1,.52-1.33c0-25-.25-49.9-.85-73.85a2.3,2.3,0,0,1,1.76-2.38,2.42,2.42,0,0,1,1.87-.86l58.8-.78a3.37,3.37,0,0,1,0-.44c.15-16.77.09-33.95-.17-51l-183,.33v0c1,16.4,2.06,33.18,3.3,49.86,3.68.53,7.51,1,11.71,1.44a1.72,1.72,0,0,1,2.17.23c3.82.38,7.86.69,12,.93a1.78,1.78,0,0,1,2.48-.26l.31.27.17.15c8.87.42,17.86.47,26.71.13h.11a2.26,2.26,0,0,1,2,1,2.81,2.81,0,0,1,.17,2.56l-2,175.83c3.57.39,7.19.71,10.76,1a1.54,1.54,0,0,1,2.33-.79Zm83.44-29.16L130.57,185v-.17c0-2.24.07-4.48.11-6.73l0-2.9.52.38-.2.27.24-.24.14.1,29.28,22.23a.83.83,0,0,0,1.3-.51,1.1,1.1,0,0,0-.36-1.26L135.16,176l-.77-.5c-.86-.56-2.16-1.41-2.82-2l-.15-.13,0-.19a1.1,1.1,0,0,0-.27-.95l-.4-.39v-.16c0-1.84.05-3.68.07-5.51l0-2.74,32.28,21.19v.19c-.24,8.9-.53,16.8-.87,24.15Zm-31-25,30.42,23.7c.14-3.18.28-6.47.4-9.9a1.39,1.39,0,0,1-1.75,0l-28.93-22,0,1.61Q131.31,181.36,131.24,184.64Zm.9-11.48c.66.53,1.82,1.29,2.61,1.8l.81.53,26.49,20.12.11.09c.12-3.41.23-6.95.33-10.68l-31-20.32,0,1.52-.06,5.36,0,0,.19.21A1.79,1.79,0,0,1,132.14,173.16Zm31.1,9.18-32.32-21.22v-.18c.07-6.6.12-13.41.15-20.81v-.66l32.49,24.32v1.56c0,1.65,0,3.31-.07,5V171l-.51-.37c-9.54-6.81-18.89-13.72-27.79-20.55a.83.83,0,0,0-1.3.51,1.1,1.1,0,0,0,.36,1.26c9.33,7.15,19.11,14.37,29.05,21.44l.14.1,0,1.12q-.06,3.64-.15,7.28Zm-31.65-21.58,31,20.37c.06-2.23.1-4.45.14-6.68v-.77c-9.9-7.05-19.63-14.23-28.92-21.35a1.77,1.77,0,0,1-.59-2,1.48,1.48,0,0,1,2.33-.81c8.73,6.69,17.9,13.48,27.26,20.16,0-1.44,0-2.88,0-4.33l0-1.22-31.17-23.33C131.7,147.88,131.65,154.42,131.59,160.76Zm32,.59L131.08,137v-.17c0-2.27,0-4.55,0-6.82v-3.77l31.55,23.67a.82.82,0,0,0,.63.17l.4-.08v.41c0,3.42,0,6.84-.05,10.27Zm-31.84-24.67L162.94,160q0-4.62,0-9.26a1.53,1.53,0,0,1-.75-.31l-30.49-22.87V130Q131.76,133.36,131.75,136.68Zm31.89,11.54-32.57-24.43v-.16c0-3.93,0-7.85,0-11.77v-.6l.5.31c10.73,6.51,21.45,13.64,31.87,21.18l.14.1V133c.07,5.15.1,9.91.11,14.55Zm-31.9-24.76L163,146.89c0-4.37,0-8.86-.1-13.7-10.2-7.38-20.69-14.35-31.18-20.74Q131.72,118,131.74,123.46Zm31.75,6.92L163,130c-10.18-7.3-20.57-14.18-30.88-20.42a.89.89,0,0,0-.66-.13l-.4.09v-.41c0-7.37-.14-14.91-.25-22.42v-.6l32.13,19.57v.18c.16,4.72.29,8.87.38,12.69v.66l-14.51-10.31c-1-.74-2.11-1.58-3.23-2.47-3.42-2.7-7.29-5.77-11.38-6.32a1.17,1.17,0,0,0-1.29,1.1.69.69,0,0,0,.67.8c4.26.58,8.48,4,12.19,7,1.24,1,2.41,1.93,3.52,2.71l14.08,10v.53c0,2.51.11,5,.15,7.52Zm-31.82-21.62a1.74,1.74,0,0,1,.75.24c10.14,6.15,20.36,12.9,30.38,20.07,0-2.28-.08-4.57-.13-6.85V122l-13.81-9.81c-1.12-.79-2.3-1.74-3.54-2.74-3.65-2.93-7.79-6.25-11.87-6.8a1.36,1.36,0,0,1-1.25-1.51,1.83,1.83,0,0,1,2.05-1.71c4.27.58,8.22,3.71,11.7,6.46,1.12.88,2.17,1.72,3.2,2.45l13.44,9.55c-.09-3.59-.21-7.47-.35-11.85l-30.8-18.76C131.54,94.48,131.62,101.7,131.67,108.76Zm31.13-5.47-31-18.89a.87.87,0,0,0-.67-.13l-.4.08V84c-.06-3.75-.13-7.49-.2-11.24l0-.74.56.48a224.88,224.88,0,0,0,31.26,22.36l.16.09v.18q.17,3.8.31,7.6Zm-31.43-19.7a1.51,1.51,0,0,1,.75.24l30,18.25q-.12-3.39-.27-6.79a225.22,225.22,0,0,1-30.63-21.86Zm31,8.93-.53-.32a222,222,0,0,1-29.5-21.26,1,1,0,0,0-1.33,0l-.52.39,0-2-.09-4.12v-.65l31.72,21.64v.17c.08,1.6.15,3.2.22,4.81ZM131.67,70a1.69,1.69,0,0,1,1.1.41,221.1,221.1,0,0,0,28.87,20.88v-.15c-.07-1.55-.14-3.1-.22-4.64L131,65.79c0,1.16.05,2.32.07,3.47l0,.85A1.76,1.76,0,0,1,131.67,70ZM164.19,83.1,164,83,132.93,61.74l17.55-.23.09.06a250,250,0,0,1,23.64,19.75l.51.48-.69.09c-3.24.41-6.48.82-9.71,1.19ZM135,62.38l29.29,20,.06,0q4.43-.51,8.86-1.08a252.61,252.61,0,0,0-23-19.15ZM43.91,82.47a23.42,23.42,0,0,1-10.07-1.9c-3.69-1.68-7-4.84-10.13-7.89-1.16-1.12-2.25-2.17-3.35-3.13l-11-9.67,1.08.15c3.77.5,7.73,1,11.78,1.35h.13l.08.09a63,63,0,0,0,5.71,5.36c1,.85,2,1.74,2.95,2.61l14.06,13ZM11.46,60.83l9.34,8.22c1.11,1,2.21,2,3.38,3.16,3.12,3,6.35,6.12,9.93,7.76a22.48,22.48,0,0,0,9.37,1.83L30.66,69.94c-.94-.87-2-1.75-2.94-2.6A64.76,64.76,0,0,1,22.05,62C18.42,61.67,14.87,61.27,11.46,60.83Zm34.8,21.59.28-.52a.81.81,0,0,0-.2-1.06L33.79,69.23c-1.07-1-2.21-2-3.41-3-1.49-1.27-3-2.58-4.46-4l-.67-.64.93.07c3.86.33,7.88.58,12,.77h.12l.09.08a94.32,94.32,0,0,1,14,16.23,1,1,0,0,0,.83.46,1.18,1.18,0,0,0,1-.57.79.79,0,0,0-.09-.85A97.52,97.52,0,0,0,41.9,63.22l-.61-.6.85,0c2.27.07,4.74.12,7.55.15h.25L50,63a.81.81,0,0,0,.3.43A63,63,0,0,1,61.56,75.19l.07.09-.08,6.4-.35,0c-.72,0-1.47-.07-2.27-.07-2.47,0-5,.22-7.49.44-1.51.13-3.06.27-4.59.35Zm-19.19-20c1.21,1.13,2.49,2.22,3.74,3.28s2.35,2,3.43,3L46.8,80.35a1.51,1.51,0,0,1,.5,1.34c1.36-.08,2.74-.2,4.08-.32,2.49-.22,5-.44,7.55-.44.69,0,1.34,0,2,0L61,75.5A62.42,62.42,0,0,0,49.89,64a1.65,1.65,0,0,1-.43-.53c-2.38,0-4.52-.06-6.5-.12A98.69,98.69,0,0,1,54.68,77.47,1.46,1.46,0,0,1,54.8,79a1.82,1.82,0,0,1-1.59.92,1.61,1.61,0,0,1-1.37-.74A94.53,94.53,0,0,0,38,63.15C34.27,63,30.61,62.75,27.07,62.46Zm150.18,19-.12-.11a250.51,250.51,0,0,0-22.61-19.32l-.77-.59,12-.16.1.08c7.23,6.26,15,12.34,23,18.06l.7.5-.85.1c-3.79.45-7.57.94-11.34,1.42ZM155.69,62.1a254.88,254.88,0,0,1,21.79,18.68c3.44-.44,6.89-.88,10.34-1.3C180.05,73.92,172.56,68,165.55,62Zm36.6,17.52-.11-.17a1.18,1.18,0,0,0-.29-.3c-7.56-5.29-15.09-11.11-22.4-17.32l-.67-.57,14-.19.06.26a1.06,1.06,0,0,0,.4.6A165.87,165.87,0,0,1,201.82,78.1l.49.5-.7.06c-2.92.27-5.9.58-9.11.94ZM170.6,61.9c7.08,6,14.36,11.59,21.67,16.71a1.67,1.67,0,0,1,.34.31c2.89-.33,5.6-.61,8.24-.85a163.83,163.83,0,0,0-18-15.61,1.72,1.72,0,0,1-.56-.72Zm34.27,16.48-.1-.11a169.58,169.58,0,0,0-18.65-16.65l-.76-.58L190,61l.1.12a2,2,0,0,0,.82.59,150,150,0,0,1,28.85,15.36l.87.59-1.05,0c-4.48.06-9.23.29-14.51.71Zm-17.59-16.7a169.63,169.63,0,0,1,17.86,16c4.82-.38,9.19-.61,13.34-.69a149,149,0,0,0-27.86-14.7,2.7,2.7,0,0,1-1-.66Zm37.65,14.44-.53-.38A154.23,154.23,0,0,0,194,59l-.17-.07,0-.19a1.69,1.69,0,0,0-1.07-1.38l-.33-.12.14-.32a2,2,0,0,0,.14-.73c0-1.18,0-2.36,0-3.54V49.82l29.78,22.67a.83.83,0,0,0,1.3-.51,1.09,1.09,0,0,0-.36-1.26l-30.7-23.37V39.3l.12-.1a1.12,1.12,0,0,0,.43-.77.9.9,0,0,0-.29-.71l.48-.46h0c3.05,3.12,7.17,5.6,11.17,8,1.4.84,2.85,1.72,4.2,2.59l16.1,10.4ZM194.39,58.4a155.89,155.89,0,0,1,29.87,16.43V72.52a1.45,1.45,0,0,1-2.19.5L193.35,51.15V52.6c0,1.18,0,2.36,0,3.54a2.54,2.54,0,0,1-.1.68A2.42,2.42,0,0,1,194.39,58.4Zm-1-11.38,30.44,23.17a1.76,1.76,0,0,1,.45.5V58.62l-15.79-10.2c-1.34-.87-2.72-1.7-4.19-2.58a64,64,0,0,1-10.37-7.21,1.79,1.79,0,0,1-.53,1v2.94C193.37,44,193.38,45.53,193.37,47Zm-131.71,25-.58-.7a63.84,63.84,0,0,0-7.78-8l-.67-.58h.89c2.89,0,5.48-.05,7.9-.12h.35Zm-7.26-8.6A64.3,64.3,0,0,1,61,70.25l.08-6.89C59,63.42,56.82,63.46,54.4,63.47Zm170.52-7.58L199.43,39.43c-.33-.22-.74-.54-1.22-.9-1.5-1.15-3.55-2.73-5.19-2.79h-.31v-.32l0-6.8V26l.47.22a237.53,237.53,0,0,1,31.49,17.44l.28.15ZM193.37,35.1c1.77.23,3.76,1.77,5.24,2.9.47.36.87.67,1.18.87l24.46,15.81V44.16A236.73,236.73,0,0,0,193.34,27v1.62C193.36,30.77,193.37,32.94,193.37,35.1Zm31.54,6.34-.51-.34A236.9,236.9,0,0,0,193,23.92l-.34-.11v-.24c0-6.58-.08-12-.15-16.92V6l32.41,23.69Zm-31.58-18.1a237.69,237.69,0,0,1,30.92,16.87V30L193.18,7.3C193.25,12,193.29,17.15,193.33,23.34Z"/></g></g></svg>