<svg xmlns="http://www.w3.org/2000/svg" viewBox="0 0 101.45 167.46"><defs><style>.cls-1{fill:#f6ece4;}.cls-2{fill:#cc997b;}</style></defs><g id="Layer_2" data-name="Layer 2"><g id="Layer_1-2" data-name="Layer 1"><path class="cls-1" d="M101.45,67.14a59.49,59.49,0,0,1-26.66,49.64l-6.49-9.91a47.72,47.72,0,0,0,19-54.42L60.9,95.09,30.07,45.32,18,25.87l-6.23-10L2,0H14.3l7,11.3,6.39,10.31L42.37,45.32,60.9,75.23,79.42,45.32,82,41.22q-1.24-1.92-2.66-3.71A47.72,47.72,0,0,0,32,20.5L25.43,10a59.59,59.59,0,0,1,60.4,17c1,1.08,2,2.21,2.88,3.37A60.19,60.19,0,0,1,95,40.09a57.2,57.2,0,0,1,2.36,5.23A59.26,59.26,0,0,1,101.45,67.14Z"/><polygon class="cls-1" points="47.34 45.32 60.9 67.22 74.46 45.32 47.34 45.32"/><path class="cls-2" d="M0,100.32A59.49,59.49,0,0,1,26.66,50.68l6.49,9.91a47.72,47.72,0,0,0-19,54.42L40.55,72.37l30.83,49.77,12,19.45,6.23,10,9.8,15.82H87.15l-7-11.3-6.39-10.31L59.08,122.14,40.55,92.23,22,122.14l-2.54,4.1q1.25,1.92,2.66,3.71a47.72,47.72,0,0,0,47.34,17L76,157.51a59.59,59.59,0,0,1-60.4-17c-1-1.08-2-2.21-2.88-3.37a60.19,60.19,0,0,1-6.25-9.76,57.2,57.2,0,0,1-2.36-5.23A59.26,59.26,0,0,1,0,100.32Z"/><polygon class="cls-2" points="54.11 122.14 40.55 100.24 26.99 122.14 54.11 122.14"/></g></g></svg>